<svg xmlns="http://www.w3.org/2000/svg" viewBox="0 0 241 178" width="241" height="178"><g transform="translate(74.6,6)"><defs><radialGradient id="tgIC" cx="50%" cy="50%" r="50%"><stop offset="0%" stop-color="#fbfeff"/><stop offset="55%" stop-color="#4a8ec8"/><stop offset="100%" stop-color="#0b2e62"/></radialGradient><mask id="rmIC"><ellipse cx="46.0" cy="53.0" rx="40.0" ry="47.0" fill="white"/><ellipse cx="46.0" cy="53.0" rx="27.80" ry="34.78" fill="black"/></mask></defs><ellipse cx="46.0" cy="53.0" rx="40.0" ry="47.0" fill="#0d2d5e" mask="url(#rmIC)"/><ellipse cx="46.0" cy="53.0" rx="27.80" ry="34.78" fill="url(#tgIC)"/></g><g fill="#0d2d5e"><path d="M73 0V700H312Q395 700 449.0 672.5Q503 645 529.5 597.5Q556 550 556 490Q556 433 530.0 385.0Q504 337 450.5 309.0Q397 281 312 281H173V0ZM173 364H308Q387 364 420.5 398.0Q454 432 454 490Q454 550 420.5 583.5Q387 617 308 617H173Z" transform="matrix(0.044 0 0 -0.044 16.788 149.68)"/><path d="M389 -12Q287 -12 210.0 33.5Q133 79 90.0 161.0Q47 243 47 350Q47 457 90.0 538.5Q133 620 210.0 666.0Q287 712 389 712Q491 712 568.0 666.0Q645 620 687.5 538.5Q730 457 730 350Q730 243 687.5 161.0Q645 79 568.0 33.5Q491 -12 389 -12ZM389 77Q461 77 514.5 110.0Q568 143 598.0 204.0Q628 265 628 350Q628 435 598.0 496.0Q568 557 514.5 589.5Q461 622 389 622Q317 622 263.0 589.5Q209 557 179.0 496.0Q149 435 149 350Q149 265 179.0 204.0Q209 143 263.0 110.0Q317 77 389 77Z" transform="matrix(0.044 0 0 -0.044 51.184 149.68)"/><path d="M73 0V700H310Q392 700 445.5 672.0Q499 644 524.5 597.0Q550 550 550 492Q550 427 515.5 374.0Q481 321 407 298L557 0H441L303 284H173V0ZM173 360H303Q378 360 412.5 396.5Q447 433 447 490Q447 548 413.0 582.0Q379 616 303 616H173Z" transform="matrix(0.044 0 0 -0.044 92.092 149.68)"/><path d="M236 0V618H29V700H544V618H336V0Z" transform="matrix(0.044 0 0 -0.044 127.324 149.68)"/><path d="M28 0 285 700H394L651 0H544L483 173H194L133 0ZM339 580 223 253H455Z" transform="matrix(0.044 0 0 -0.044 162.028 149.68)"/><path d="M73 0V700H173V79H493V0Z" transform="matrix(0.044 0 0 -0.044 199.46 149.68)"/></g><g fill="#6aacdb"><path d="M383 -12Q278 -12 202.5 33.5Q127 79 86.5 160.5Q46 242 46 349Q46 456 86.5 538.0Q127 620 202.5 666.0Q278 712 383 712Q510 712 591.0 648.5Q672 585 692 471H544Q531 526 490.0 558.0Q449 590 382 590Q288 590 235.5 525.5Q183 461 183 349Q183 237 235.5 173.0Q288 109 382 109Q449 109 490.0 138.5Q531 168 544 221H692Q672 112 591.0 50.0Q510 -12 383 -12Z" transform="matrix(0.01 0 0 -0.01 65.12599999999999 167.68)"/><path d="M250 0V246L14 700H167L319 382L469 700H621L385 246V0Z" transform="matrix(0.01 0 0 -0.01 75.106 167.68)"/><path d="M69 0V700H356Q464 700 522.0 649.5Q580 599 580 520Q580 454 545.0 414.5Q510 375 459 361Q519 349 557.5 301.0Q596 253 596 191Q596 107 536.0 53.5Q476 0 366 0ZM204 408H334Q387 408 414.5 432.0Q442 456 442 500Q442 543 414.5 567.5Q387 592 333 592H204ZM204 110H344Q399 110 429.0 135.0Q459 160 459 207Q459 253 427.5 280.0Q396 307 342 307H204Z" transform="matrix(0.01 0 0 -0.01 84.056 167.68)"/><path d="M69 0V700H529V591H204V408H499V303H204V109H529V0Z" transform="matrix(0.01 0 0 -0.01 93.036 167.68)"/><path d="M69 0V700H331Q415 700 470.0 671.0Q525 642 552.0 593.5Q579 545 579 486Q579 423 546.0 369.5Q513 316 442 291L586 0H432L304 274H204V0ZM204 372H322Q384 372 412.5 402.0Q441 432 441 481Q441 530 412.5 558.5Q384 587 322 587H204Z" transform="matrix(0.01 0 0 -0.01 101.46600000000001 167.68)"/><path d="M310 -12Q234 -12 174.5 14.0Q115 40 80.5 90.0Q46 140 45 211H188Q189 164 221.5 132.5Q254 101 309 101Q356 101 385.0 124.0Q414 147 414 186Q414 225 388.5 248.5Q363 272 321.5 287.5Q280 303 230 320Q147 347 103.5 392.0Q60 437 60 511Q60 574 90.5 619.0Q121 664 174.5 688.0Q228 712 298 712Q369 712 422.5 687.5Q476 663 507.0 617.0Q538 571 540 509H396Q394 544 367.5 571.0Q341 598 296 598Q256 599 229.0 579.0Q202 559 202 520Q202 487 223.5 467.0Q245 447 282.0 433.5Q319 420 366 404Q418 386 461.5 362.0Q505 338 531.5 298.5Q558 259 558 195Q558 140 529.5 93.0Q501 46 445.5 17.0Q390 -12 310 -12Z" transform="matrix(0.01 0 0 -0.01 110.376 167.68)"/><path d="M69 0V700H529V591H204V408H499V303H204V109H529V0Z" transform="matrix(0.01 0 0 -0.01 119.016 167.68)"/><path d="M383 -12Q278 -12 202.5 33.5Q127 79 86.5 160.5Q46 242 46 349Q46 456 86.5 538.0Q127 620 202.5 666.0Q278 712 383 712Q510 712 591.0 648.5Q672 585 692 471H544Q531 526 490.0 558.0Q449 590 382 590Q288 590 235.5 525.5Q183 461 183 349Q183 237 235.5 173.0Q288 109 382 109Q449 109 490.0 138.5Q531 168 544 221H692Q672 112 591.0 50.0Q510 -12 383 -12Z" transform="matrix(0.01 0 0 -0.01 127.446 167.68)"/><path d="M340 -12Q262 -12 199.5 18.5Q137 49 100.0 111.5Q63 174 63 270V700H198V269Q198 190 236.0 151.0Q274 112 342 112Q411 112 449.0 151.0Q487 190 487 269V700H622V270Q622 174 584.0 111.5Q546 49 481.5 18.5Q417 -12 340 -12Z" transform="matrix(0.01 0 0 -0.01 137.426 167.68)"/><path d="M69 0V700H331Q415 700 470.0 671.0Q525 642 552.0 593.5Q579 545 579 486Q579 423 546.0 369.5Q513 316 442 291L586 0H432L304 274H204V0ZM204 372H322Q384 372 412.5 402.0Q441 432 441 481Q441 530 412.5 558.5Q384 587 322 587H204Z" transform="matrix(0.01 0 0 -0.01 146.87599999999998 167.68)"/><path d="M69 0V700H204V0Z" transform="matrix(0.01 0 0 -0.01 155.78599999999997 167.68)"/><path d="M231 0V591H27V700H570V591H366V0Z" transform="matrix(0.01 0 0 -0.01 161.10599999999997 167.68)"/><path d="M250 0V246L14 700H167L319 382L469 700H621L385 246V0Z" transform="matrix(0.01 0 0 -0.01 169.67599999999996 167.68)"/></g></svg>